<svg width="1920" height="1080" viewBox="0 0 1920 1080" fill="none" xmlns="http://www.w3.org/2000/svg">
<g clip-path="url(#clip0_1504_141)">
<path d="M0 786.6L45.8667 783.54C91.7333 780.66 183.467 774.54 274.773 764.1C366.293 753.66 457.173 738.54 548.693 743.04C640 747.54 731.733 771.66 823.04 782.46C914.56 793.26 1005.44 790.74 1096.96 767.16C1188.27 743.4 1280 698.4 1371.31 679.5C1462.83 660.6 1553.71 667.8 1645.23 670.86C1736.53 673.74 1828.27 672.66 1874.13 671.94L1920 671.4V1081.8H1874.13C1828.27 1081.8 1736.53 1081.8 1645.23 1081.8C1553.71 1081.8 1462.83 1081.8 1371.31 1081.8C1280 1081.8 1188.27 1081.8 1096.96 1081.8C1005.44 1081.8 914.56 1081.8 823.04 1081.8C731.733 1081.8 640 1081.8 548.693 1081.8C457.173 1081.8 366.293 1081.8 274.773 1081.8C183.467 1081.8 91.7333 1081.8 45.8667 1081.8H0V786.6Z" fill="#FA7268"/>
<path d="M0 864L45.8667 862.2C91.7333 860.4 183.467 856.8 274.773 843.84C366.293 831.06 457.173 808.74 548.693 804.6C640 800.46 731.733 814.14 823.04 819.36C914.56 824.4 1005.44 820.8 1096.96 807.84C1188.27 795.06 1280 772.74 1371.31 770.94C1462.83 769.14 1553.71 787.86 1645.23 795.24C1736.53 802.8 1828.27 799.2 1874.13 797.4L1920 795.6V1081.8H1874.13C1828.27 1081.8 1736.53 1081.8 1645.23 1081.8C1553.71 1081.8 1462.83 1081.8 1371.31 1081.8C1280 1081.8 1188.27 1081.8 1096.96 1081.8C1005.44 1081.8 914.56 1081.8 823.04 1081.8C731.733 1081.8 640 1081.8 548.693 1081.8C457.173 1081.8 366.293 1081.8 274.773 1081.8C183.467 1081.8 91.7333 1081.8 45.8667 1081.8H0V864Z" fill="#EF5F67"/>
<path d="M0 909L45.8667 895.5C91.7333 882 183.467 855 274.773 839.7C366.293 824.4 457.173 820.8 548.693 823.5C640 826.2 731.733 835.2 823.04 835.2C914.56 835.2 1005.44 826.2 1096.96 836.1C1188.27 846 1280 874.8 1371.31 876.24C1462.83 877.86 1553.71 851.94 1645.23 838.8C1736.53 825.66 1828.27 824.94 1874.13 824.76L1920 824.4V1081.8H1874.13C1828.27 1081.8 1736.53 1081.8 1645.23 1081.8C1553.71 1081.8 1462.83 1081.8 1371.31 1081.8C1280 1081.8 1188.27 1081.8 1096.96 1081.8C1005.44 1081.8 914.56 1081.8 823.04 1081.8C731.733 1081.8 640 1081.8 548.693 1081.8C457.173 1081.8 366.293 1081.8 274.773 1081.8C183.467 1081.8 91.7333 1081.8 45.8667 1081.8H0V909Z" fill="#E34C67"/>
<path d="M0 964.8L45.8667 957.24C91.7333 949.86 183.467 934.74 274.773 922.14C366.293 909.54 457.173 899.46 548.693 904.5C640 909.54 731.733 930.06 823.04 938.16C914.56 946.26 1005.44 941.94 1096.96 943.56C1188.27 945 1280 952.2 1371.31 947.16C1462.83 941.94 1553.71 924.66 1645.23 923.4C1736.53 922.14 1828.27 937.26 1874.13 944.64L1920 952.2V1081.8H1874.13C1828.27 1081.8 1736.53 1081.8 1645.23 1081.8C1553.71 1081.8 1462.83 1081.8 1371.31 1081.8C1280 1081.8 1188.27 1081.8 1096.96 1081.8C1005.44 1081.8 914.56 1081.8 823.04 1081.8C731.733 1081.8 640 1081.8 548.693 1081.8C457.173 1081.8 366.293 1081.8 274.773 1081.8C183.467 1081.8 91.7333 1081.8 45.8667 1081.8H0V964.8Z" fill="#D53867"/>
<path d="M0 945L45.8667 947.7C91.7333 950.4 183.467 955.8 274.773 964.8C366.293 973.8 457.173 986.4 548.693 984.6C640 982.8 731.733 966.6 823.04 963.9C914.56 961.2 1005.44 972 1096.96 981.36C1188.27 990.54 1280 998.46 1371.31 1000.44C1462.83 1002.6 1553.71 999 1645.23 995.76C1736.53 992.34 1828.27 989.46 1874.13 987.84L1920 986.4V1081.8H1874.13C1828.27 1081.8 1736.53 1081.8 1645.23 1081.8C1553.71 1081.8 1462.83 1081.8 1371.31 1081.8C1280 1081.8 1188.27 1081.8 1096.96 1081.8C1005.44 1081.8 914.56 1081.8 823.04 1081.8C731.733 1081.8 640 1081.8 548.693 1081.8C457.173 1081.8 366.293 1081.8 274.773 1081.8C183.467 1081.8 91.7333 1081.8 45.8667 1081.8H0V945Z" fill="#C62368"/>
</g>
<defs>
<clipPath id="clip0_1504_141">
<rect width="1920" height="1080" fill="white"/>
</clipPath>
</defs>
</svg>
